<svg width="21" height="22" viewBox="0 0 21 22" fill="none" xmlns="http://www.w3.org/2000/svg"><g clip-path="url(#a)"><path d="M20.664 10.148 13.08 2.203a1.115 1.115 0 0 0-1.625 0l-.689.721a1.225 1.225 0 0 0-.335.852c0 .322.12.635.335.861l4.425 4.645H1.134C.501 9.282 0 9.802 0 10.466v1.02c0 .664.5 1.236 1.135 1.236H15.24l-4.474 4.672a1.207 1.207 0 0 0-.336.843c0 .322.12.62.336.847l.688.72a1.114 1.114 0 0 0 1.626-.002l7.584-7.945c.216-.227.336-.531.335-.854a1.23 1.23 0 0 0-.336-.855Z" fill="#87B81D"/></g><defs><clipPath id="a"><path fill="#87B81D" d="M0 0h21v22H0z"/></clipPath></defs></svg>