<svg width="20" height="20" viewBox="0 0 20 20" fill="none" xmlns="http://www.w3.org/2000/svg"><g clip-path="url(#a)"><path d="M10 20c5.524 0 10-4.476 10-10S15.524 0 10 0 0 4.476 0 10s4.476 10 10 10ZM4.576 9.783l9.642-3.717c.447-.162.838.109.693.786V6.85l-1.641 7.734c-.122.548-.447.682-.903.423l-2.5-1.842-1.206 1.162c-.133.133-.246.245-.504.245l.177-2.544 4.633-4.186c.202-.177-.045-.277-.31-.1L6.93 11.346l-2.468-.77c-.536-.17-.548-.535.113-.794Z" fill="#353535"/></g><defs><clipPath id="a"><path fill="#fff" d="M0 0h20v20H0z"/></clipPath></defs></svg>