<svg width="15" height="15" viewBox="0 0 15 15" fill="none" xmlns="http://www.w3.org/2000/svg">
<path d="M13.8007 13.8008C13.3278 14.2737 12.5614 14.2737 12.0885 13.8008L1.19999 2.91227C0.727072 2.43935 0.727072 1.67295 1.19999 1.20003C1.67291 0.72711 2.43931 0.72711 2.91224 1.20003L13.8007 12.0885C14.2736 12.5614 14.2736 13.3278 13.8007 13.8008Z" fill="white"/>
<path d="M13.796 2.91245L2.90747 13.8009C2.43455 14.2739 1.66815 14.2739 1.19523 13.8009C0.722311 13.328 0.722311 12.5616 1.19523 12.0887L12.0837 1.20021C12.5566 0.727289 13.323 0.72729 13.796 1.20021C14.2689 1.67313 14.2689 2.43953 13.796 2.91245Z" fill="white"/>
</svg>
