<svg width="20" height="20" viewBox="0 0 20 20" fill="none" xmlns="http://www.w3.org/2000/svg"><path d="M10 13.08a3.079 3.079 0 1 0 0-6.157 3.079 3.079 0 0 0 0 6.158Z" fill="#000"/><path d="M19.693 9.149c-2.367-2.86-5.95-5.613-9.693-5.613-3.744 0-7.328 2.755-9.693 5.613a1.339 1.339 0 0 0 0 1.706c.594.718 1.841 2.105 3.506 3.317 4.193 3.053 8.171 3.06 12.374 0 1.665-1.212 2.912-2.599 3.506-3.318.408-.493.41-1.21 0-1.705ZM10 5.69A4.315 4.315 0 0 1 14.31 10 4.315 4.315 0 0 1 10 14.313a4.315 4.315 0 0 1-4.31-4.31A4.315 4.315 0 0 1 10 5.69Z" fill="#000"/></svg>