<svg width="30" height="30" viewBox="0 0 30 30" fill="none" xmlns="http://www.w3.org/2000/svg"><g clip-path="url(#a)" fill="#fff"><path d="M10.02 21.797c0-5.493 4.468-9.961 9.96-9.961v-1.29h2.637A.879.879 0 0 0 23.2 9.01L13.238.219a.879.879 0 0 0-1.163 0L2.114 9.01a.879.879 0 0 0 .581 1.538h2.637V29.12c0 .486.394.879.879.879h8.126a9.957 9.957 0 0 1-4.317-8.203Zm10.636.648v2.753a1.7 1.7 0 0 0 .912-1.236c.044-.262.106-1.142-.912-1.517Z"/><path d="M18.647 19.147c-.067.36.022.697.228.859.095.074.202.146.32.216v-1.894c-.322.19-.493.53-.548.82Z"/><path d="M19.98 13.594c-4.523 0-8.203 3.68-8.203 8.203S15.457 30 19.981 30c4.523 0 8.203-3.68 8.203-8.203s-3.68-8.203-8.204-8.203Zm3.033 10.613a3.187 3.187 0 0 1-.982 1.81c-.393.362-.86.608-1.374.729v.617a.732.732 0 1 1-1.465 0v-.552c-.658-.05-1.192-.216-1.957-.716a.732.732 0 0 1 .802-1.226c.463.303.751.425 1.155.471v-3.469c-.521-.236-.908-.463-1.223-.71-.641-.503-.934-1.378-.763-2.282.186-.989.873-1.775 1.793-2.052.065-.02.13-.037.193-.052v-.544a.733.733 0 0 1 1.465 0v.476c.918.15 1.546.641 1.697.937a.732.732 0 0 1-1.207.812 1.532 1.532 0 0 0-.49-.246v2.679c.155.058.31.114.463.168 1.389.49 2.132 1.727 1.893 3.15Z"/></g><defs><clipPath id="a"><path fill="#fff" d="M0 0h30v30H0z"/></clipPath></defs></svg>