<svg width="24" height="24" viewBox="0 0 24 24" fill="none" xmlns="http://www.w3.org/2000/svg"><g clip-path="url(#a)" fill="#486113"><path d="M17.503 0H6.497A6.504 6.504 0 0 0 0 6.497v11.007A6.504 6.504 0 0 0 6.497 24h11.007A6.504 6.504 0 0 0 24 17.504V6.497A6.504 6.504 0 0 0 17.503 0ZM12 18.562A6.57 6.57 0 0 1 5.438 12 6.57 6.57 0 0 1 12 5.438 6.57 6.57 0 0 1 18.562 12 6.57 6.57 0 0 1 12 18.562Zm6.72-11.577c-1.07 0-1.94-.87-1.94-1.939 0-1.07.87-1.939 1.94-1.939a1.94 1.94 0 0 1 1.938 1.94c0 1.068-.87 1.938-1.939 1.938Z"/><path d="M12 6.846a5.161 5.161 0 0 0-5.156 5.156 5.161 5.161 0 0 0 5.155 5.155 5.161 5.161 0 0 0 5.155-5.155A5.161 5.161 0 0 0 12 6.846Zm6.718-2.33a.533.533 0 1 0 .002 1.065.533.533 0 0 0-.002-1.065Z"/></g><defs><clipPath id="a"><path fill="#fff" d="M0 0h24v24H0z"/></clipPath></defs></svg>