<svg width="30" height="30" viewBox="0 0 30 30" fill="none" xmlns="http://www.w3.org/2000/svg"><path d="M9 17.747c1-1.25 2-2.25 3-3 1.875-1.625 3.5-2.25 3.5-2.25s-.875 1.375-2.25 3.375c-.25.5-.625 1-1 1.625-.375.5-.625 1.125-1 1.75s-.625 1.25-1 1.875c-.25.625-.75 1.375-1 2s-.625 1.375-.875 2c-.125.25-.25.625-.375.875 4.125 2.375 9.625 1.875 13-1.75 6.25-6.75.75-9.625 6.5-21.5 0 0-12.75-2.625-21.875 6.375-4.125 4.125-4.125 10.75 0 15 .25-.75.5-1.5.875-2.25.625-1.5 1.5-3 2.5-4.125Z" fill="#fff"/></svg>