<svg width="30" height="30" viewBox="0 0 30 30" fill="none" xmlns="http://www.w3.org/2000/svg"><g clip-path="url(#a)" fill="#fff"><path d="M4.893 8.962a.879.879 0 1 0-.88 1.521.879.879 0 0 0 .88-1.521Zm22.412-1.868h-.88v-.88a.878.878 0 1 0-1.757 0v.88h-.879a.879.879 0 1 0 0 1.758h.879v.878a.879.879 0 1 0 1.758 0v-.878h.879a.878.878 0 1 0 0-1.758ZM3.574 4.395a.878.878 0 1 0 1.758 0v-.88h.879a.878.878 0 1 0 0-1.757h-.879v-.88a.879.879 0 1 0-1.758 0v.88h-.879a.879.879 0 1 0 0 1.758h.88v.879Zm5.552-2.752c.836 1.674 1.301 3.521 1.418 5.388h8.912c.117-1.867.582-3.714 1.418-5.388l.186-.37a.878.878 0 0 0-1.18-1.18l-2.949 1.475-1.31-1.31a.879.879 0 0 0-1.242 0l-1.31 1.31-2.95-1.475a.878.878 0 0 0-1.18 1.18l.187.37Zm11.255 7.209H9.619l-3.432 4.153c-1.685 2.04-2.613 4.681-2.613 7.33 0 5.874 4.485 9.669 11.426 9.669 6.94 0 11.425-3.795 11.425-9.668 0-2.65-.927-5.232-2.613-7.273L20.38 8.852Zm-5.39 9.105a2.64 2.64 0 0 1 2.636 2.636 2.633 2.633 0 0 1-1.748 2.472v.787a.878.878 0 1 1-1.758 0v-.78a2.632 2.632 0 0 1-1.767-2.479.878.878 0 1 1 1.758 0 .88.88 0 1 0 .878-.878 2.64 2.64 0 0 1-2.636-2.637c0-1.148.741-2.116 1.767-2.478v-1.295a.878.878 0 1 1 1.758 0v1.301a2.633 2.633 0 0 1 1.748 2.472.878.878 0 1 1-1.758 0 .88.88 0 1 0-.879.879Z"/></g><defs><clipPath id="a"><path fill="#fff" d="M0 0h30v30H0z"/></clipPath></defs></svg>