<svg width="18" height="18" viewBox="0 0 18 18" fill="none" xmlns="http://www.w3.org/2000/svg"><g clip-path="url(#a)" fill="#fff"><path d="M12.868.527A.527.527 0 0 0 12.34 0h-2.109a.527.527 0 0 0-.527.527v.914h3.164V.527ZM3.57 15.233a6.409 6.409 0 0 1-1.273-.986l-.083-.085A5.347 5.347 0 0 0 .55 15.456a.527.527 0 0 0 0 .69 5.343 5.343 0 0 0 5.41 1.678 7.379 7.379 0 0 1-1.338-1.971l-1.05-.62Zm.536-.908a7.32 7.32 0 0 1 .655-4.938 5.347 5.347 0 0 0-2.782-.548.527.527 0 0 0-.487.487 5.343 5.343 0 0 0 2.614 4.998Zm10.206-7.077a2.501 2.501 0 0 1-1.33-2.25V3.55a.527.527 0 0 0-.002-1.05H9.591a.527.527 0 0 0-.001 1.05V5a2.5 2.5 0 0 1-1.331 2.249 6.3 6.3 0 0 0-2.913 3.44h11.88a6.3 6.3 0 0 0-2.914-3.44Zm3.182 4.494H5.077a6.308 6.308 0 0 0 2.574 6.16.518.518 0 0 0 .304.098h6.66a.53.53 0 0 0 .306-.097 6.308 6.308 0 0 0 2.573-6.16Z"/></g><defs><clipPath id="a"><path fill="#fff" d="M0 0h18v18H0z"/></clipPath></defs></svg>