<svg width="19" height="19" viewBox="0 0 19 19" fill="none" xmlns="http://www.w3.org/2000/svg"><path d="M16.949 2.354a21.823 21.823 0 0 0-5.356.837C8.217-.505 3.539 2.066 3.49 2.092a.3.3 0 0 0-.083.446c1.024 1.264 3.12 1.576 4.928 1.576.339 0 .665-.012.974-.027-3.034 1.535-3.922 3.62-4.141 4.308-1.91.154-3.426 2.206-3.426 4.705-.05 4.164 4.19 6.558 6.507 2.94-1.412-.932-2.202-2.568-2.226-4.53a6.066 6.066 0 0 1 .43-2.272c.073-.185.157-.366.252-.54a2.881 2.881 0 0 0-.908-.282c.32-.814 1.47-2.954 5-4.31a4.653 4.653 0 0 0-.992 2.93c-1.987.202-3.237 2.519-3.189 4.473.03 2.257 1.254 4.391 3.486 4.495 1.923 0 3.488-2.016 3.488-4.495 0-2.348-1.407-4.28-3.191-4.474a3.955 3.955 0 0 1 .032-.594c.113-.896.585-2.472 2.467-2.971a22.652 22.652 0 0 1 4.076-.523.297.297 0 0 0-.026-.593Zm-4.555 9.449a.29.29 0 0 1-.317-.294c0-1.048-.38-2.045-.992-2.606a.297.297 0 0 1 .401-.44c.73.671 1.185 1.838 1.185 3.046a.289.289 0 0 1-.276.294Z" fill="#fff"/></svg>