<svg width="30" height="30" viewBox="0 0 30 30" fill="none" xmlns="http://www.w3.org/2000/svg"><g clip-path="url(#a)" fill="#fff"><path d="M15 8.79a6.16 6.16 0 0 0-6.152 6.151A6.16 6.16 0 0 0 15 21.094a6.16 6.16 0 0 0 6.152-6.153A6.16 6.16 0 0 0 15 8.79Zm4.137 5.015-4.687 4.688a.876.876 0 0 1-1.243 0l-2.344-2.344a.879.879 0 0 1 1.243-1.243l1.722 1.722 4.066-4.066a.879.879 0 1 1 1.243 1.243Z"/><path d="M25.547 4.687A13.18 13.18 0 0 1 16.166.802L15.62.257a.879.879 0 0 0-1.242 0l-.545.545a13.18 13.18 0 0 1-9.38 3.885.879.879 0 0 0-.88.88v8.766a16.525 16.525 0 0 0 11.14 15.62.88.88 0 0 0 .572 0 16.525 16.525 0 0 0 11.14-15.62V5.566a.879.879 0 0 0-.88-.879ZM15 22.852c-4.362 0-7.91-3.549-7.91-7.91 0-4.362 3.548-7.91 7.91-7.91s7.91 3.548 7.91 7.91c0 4.361-3.548 7.91-7.91 7.91Z"/></g><defs><clipPath id="a"><path fill="#fff" d="M0 0h30v30H0z"/></clipPath></defs></svg>