<svg width="18" height="18" viewBox="0 0 18 18" fill="none" xmlns="http://www.w3.org/2000/svg"><path d="M16.505 5.329c0-1.366-1.05-2.49-2.398-2.627A2.674 2.674 0 0 0 11.6.977c-.504 0-.973.14-1.376.38A2.68 2.68 0 0 0 7.886 0a2.665 2.665 0 0 0-2.64 2.221 2.756 2.756 0 0 0-.331-.022c-1.479 0-2.677 1.182-2.677 2.641 0 .072.005.142.01.212A2.63 2.63 0 0 0 1 7.283c0 .832.39 1.572.998 2.056-.003.048-.008.095-.008.143 0 1.459 1.199 2.642 2.677 2.642.443 0 .86-.108 1.228-.296.51.361 1.24.813 1.594.723 0 0 .132 2.01.103 2.521-.054.972-.35 2.053-.557 2.928h3.219s-.475-1.95-.496-2.602c-.02-.652.207-1.851.207-1.851l1.116-1.14c.43.29.95.455 1.51.455 1.383 0 2.522-1.04 2.661-2.368A2.645 2.645 0 0 0 17 8.016a2.61 2.61 0 0 0-.673-1.747c.113-.292.178-.609.178-.94Zm-9.991 6.063c.214-.202.394-.439.532-.7l.525 1.086s-.286.124-1.057-.386Zm1.965.67c-.272.05-.735-.777-1.064-1.449a2.69 2.69 0 0 0 1.545.267c-.085.537-.234 1.138-.481 1.183Zm1.156.53c-.63.172-.253-1.114-.073-1.858a2.67 2.67 0 0 0 .377-.171 2.61 2.61 0 0 0 .665 1.419c-.306.269-.66.525-.97.61Z" fill="#fff"/></svg>