<svg width="24" height="24" viewBox="0 0 24 24" fill="none" xmlns="http://www.w3.org/2000/svg"><g clip-path="url(#a)"><path d="M23.665 6.282c-.126-1.05-1.116-2.058-2.152-2.193a77.13 77.13 0 0 0-19.025 0C1.451 4.224.461 5.232.335 6.282a49.035 49.035 0 0 0 0 11.437c.126 1.05 1.116 2.06 2.153 2.194a77.131 77.131 0 0 0 19.025 0c1.036-.134 2.026-1.143 2.152-2.194a48.94 48.94 0 0 0 0-11.437ZM10 16.002v-8l6 4-6 4Z" fill="#486113"/></g><defs><clipPath id="a"><path fill="#fff" d="M0 0h24v24H0z"/></clipPath></defs></svg>