<svg width="190" height="48" viewBox="0 0 190 48" fill="none" xmlns="http://www.w3.org/2000/svg">
<g clip-path="url(#clip0_40_125)">
<path d="M23.6336 1.99002C18.4657 1.99002 13.4448 3.86605 9.49573 7.2726C5.50814 10.7121 2.88854 15.4921 2.11955 20.7317C0.362894 32.7046 8.5972 43.8864 20.4756 45.6578C21.5406 45.8161 22.6222 45.897 23.6901 45.897C28.8582 45.897 33.879 44.0209 37.8283 40.6144C41.8157 37.1749 44.4353 32.3945 45.2042 27.1552C46.0553 21.3549 44.6147 15.568 41.1473 10.8602C37.6809 6.15197 32.6024 3.08707 26.8478 2.22922C25.7831 2.07051 24.7015 1.99002 23.6336 1.99002ZM23.6901 47.7892C22.5305 47.7892 21.3565 47.7012 20.2011 47.529C7.29878 45.6054 -1.64518 33.4602 0.262843 20.455C1.0982 14.7638 3.94355 9.57175 8.27492 5.83519C12.5639 2.13547 18.0183 0.0981445 23.6336 0.0981445C24.7929 0.0981445 25.9666 0.185415 27.1227 0.357698C33.3725 1.28958 38.8887 4.61888 42.6546 9.73241C46.4204 14.8459 47.9852 21.1318 47.0609 27.4316C46.2256 33.1232 43.3802 38.3155 39.0484 42.0517C34.7595 45.7511 29.3055 47.7892 23.6901 47.7892Z" fill="#A49C52"/>
<path d="M19.1368 42.3838C20.0446 42.5043 20.9614 42.5654 21.8628 42.5654C31.098 42.5654 38.9263 36.2589 40.8996 27.2284C42.1142 21.6701 40.9948 15.7207 37.9055 11.3134C35.4822 7.85643 32.099 5.69563 28.3796 5.22889C27.5121 5.12028 26.6337 5.06501 25.7694 5.06501C16.4457 5.06501 8.39062 11.5035 6.616 20.3746C4.76667 29.6175 10.264 39.2689 19.1368 42.3838ZM21.8628 44.1419C20.8662 44.1419 19.8522 44.0728 18.8501 43.9356L18.7013 43.9002C14.0954 42.3055 10.1524 39.0328 7.59888 34.6863C4.98089 30.2308 4.0878 25.0379 5.08287 20.063C7.00403 10.4594 15.7039 3.48828 25.7694 3.48828C26.6979 3.48828 27.6415 3.54775 28.5729 3.66443C32.7339 4.18646 36.5022 6.57999 39.1831 10.4038C42.5221 15.167 43.7347 21.5831 42.4273 27.5676C40.2945 37.3266 31.838 44.1419 21.8628 44.1419Z" fill="#A49C52"/>
<path d="M17.8194 39.1093C18.5592 39.1927 19.3012 39.2344 20.0279 39.2344C27.7539 39.2344 34.2591 34.5524 36.6 27.3061C38.3282 21.957 37.7351 15.8786 35.0893 11.8208C33.6992 9.68744 31.8589 8.41197 29.9088 8.22804C29.2583 8.16695 28.6017 8.13592 27.9578 8.13592C19.9208 8.13592 13.1494 12.9117 11.1086 20.0196C8.90113 27.7081 13.0179 35.269 17.8194 39.1093ZM20.0279 40.4957C19.1951 40.4957 18.3437 40.4441 17.4978 40.3418L17.3252 40.3209L17.1883 40.2135C11.8324 36.0196 7.50362 28.0407 9.90676 19.6689C12.104 12.0163 19.3583 6.875 27.9578 6.875C28.6402 6.875 29.3362 6.90765 30.0252 6.97262C32.362 7.19241 34.5314 8.66862 36.1353 11.1281C38.9817 15.494 39.6311 21.9974 37.7897 27.6969C35.2779 35.4717 28.3061 40.4957 20.0279 40.4957Z" fill="#A49C52"/>
<path fill-rule="evenodd" clip-rule="evenodd" d="M34.089 12.8655C33.4293 11.4301 32.5591 10.5412 31.5704 10.2942C30.4562 10.0162 29.332 9.875 28.23 9.875C21.8639 9.875 16.8671 14.5948 14.7394 19.272C13.5356 21.9173 13.1518 24.9411 13.5895 28.4078C13.6177 28.6313 13.7534 28.6347 13.7954 28.4153C13.9406 27.657 14.1414 26.9396 14.3671 26.281C14.2956 23.8241 14.7003 21.6268 15.5924 19.666C17.5954 15.2636 22.2798 10.8211 28.23 10.8211C29.2565 10.8211 30.3042 10.9526 31.3451 11.2128C32.0372 11.3851 32.7092 12.1137 33.2374 13.2628C35.1475 17.4225 34.2143 23.5209 32.3056 27.3954C29.681 32.7229 24.4033 35.9035 18.188 35.9035C17.6419 35.9035 17.0826 35.8798 16.5214 35.8322C16.219 35.0395 15.949 34.2671 15.7101 33.5127C15.0037 30.1396 17.427 25.9854 21.0215 22.5987C24.6186 19.2093 30.2488 16.4899 30.5228 16.6474C30.7962 16.8051 24.9702 19.3276 20.7476 24.1311C17.9266 27.3399 16.6096 30.9498 17.2173 33.4831C19.8029 33.2994 23.9682 32.3367 27.395 28.432C32.6164 22.4817 32.8689 13.928 32.8689 13.928C32.8689 13.928 25.172 14.0734 19.8593 19.2487C16.2299 22.7842 13.9762 28.8759 14.7616 33.6184C15.0476 34.536 15.3747 35.4776 15.7518 36.449L15.857 36.7185L16.143 36.7469C16.8309 36.815 17.5184 36.8499 18.188 36.8499C24.7677 36.8499 30.3592 33.4722 33.1462 27.8158C35.9229 22.1798 35.5811 16.1156 34.089 12.8655Z" fill="#A49C52"/>
<path d="M65.774 27.0941C65.5907 27.8485 65.2997 28.5157 64.9 29.0951C64.5008 29.6747 64.0027 30.1394 63.4069 30.4892C62.8105 30.8391 62.1072 31.0146 61.2982 31.0146C61.0572 31.0146 60.8051 31.0032 60.542 30.9816C60.2779 30.9596 60.0247 30.9266 59.782 30.8832L61.455 22.4848C61.7494 22.2449 62.1183 22.0584 62.5606 21.9272C63.0029 21.7959 63.3992 21.7303 63.7497 21.7303C64.3839 21.7303 64.9029 21.9437 65.306 22.3697C65.7086 22.7967 65.9373 23.5789 65.9907 24.7159C66.0297 25.5474 65.9568 26.3397 65.774 27.0941ZM68.5004 19.811C67.6122 18.838 66.4462 18.3516 65.0022 18.3516C64.5205 18.3516 64.0255 18.4172 63.5178 18.5484C63.0096 18.6797 62.5317 18.8652 62.0834 19.106L63.5871 11.2983L59.4184 11.9871L55.2446 33.5069C56.0907 33.8136 57.0431 34.0541 58.1016 34.2291C59.1601 34.4039 60.1267 34.4919 61.0021 34.4919C62.4021 34.4919 63.6708 34.2456 64.8076 33.7532C65.9438 33.2614 66.907 32.5724 67.6968 31.6868C68.4867 30.8012 69.0822 29.7348 69.4831 28.4878C69.8838 27.2417 70.0495 25.8752 69.9797 24.3872C69.8818 22.3099 69.3883 20.7845 68.5004 19.811Z" fill="#2C2C2C"/>
<path d="M75.1351 16.2186C75.5795 16.591 76.1515 16.7769 76.8521 16.7769C77.1801 16.7769 77.505 16.7061 77.8266 16.5632C78.1482 16.4213 78.4343 16.23 78.6854 15.9895C78.9365 15.749 79.1366 15.4535 79.2841 15.1038C79.4313 14.7541 79.4959 14.3814 79.4777 13.9883C79.4382 13.1573 79.1746 12.5558 78.6874 12.184C78.1989 11.812 77.6378 11.6265 77.0031 11.6265C76.6529 11.6265 76.3174 11.6973 75.9961 11.8392C75.6748 11.982 75.3929 12.1731 75.1531 12.4139C74.9126 12.6543 74.7241 12.9546 74.5884 13.316C74.4521 13.6764 74.3939 14.0653 74.4133 14.48C74.4501 15.268 74.6911 15.8476 75.1351 16.2186Z" fill="#2C2C2C"/>
<path d="M90.1718 26.9955C90.0177 27.6843 89.7745 28.3243 89.4416 28.9146C89.1081 29.5051 88.6987 29.9972 88.2143 30.3907C87.7295 30.7846 87.1588 30.9815 86.5029 30.9815C85.6053 30.9815 84.9954 30.6862 84.6726 30.0952C84.3489 29.5051 84.1632 28.6961 84.1149 27.6678C84.086 27.0559 84.1483 26.4052 84.3023 25.7165C84.4555 25.027 84.6933 24.3873 85.0161 23.797C85.3384 23.2061 85.7472 22.7142 86.2431 22.3211C86.7381 21.9271 87.3038 21.7299 87.938 21.7299C88.8575 21.7299 89.4782 22.0257 89.8017 22.6159C90.1249 23.2061 90.3106 24.0162 90.3587 25.0435C90.3876 25.6564 90.3255 26.3066 90.1718 26.9955ZM92.6844 19.7123C91.6649 18.7394 90.3563 18.2529 88.7596 18.2529C87.2711 18.2529 85.9726 18.5539 84.8631 19.1551C83.7534 19.7566 82.8393 20.5489 82.1199 21.5331C81.4001 22.5173 80.8726 23.6328 80.5374 24.8792C80.2021 26.1262 80.065 27.4059 80.1273 28.7177C80.161 29.4394 80.2726 30.0971 80.4532 30.6993C80.2776 30.7398 80.1049 30.7756 79.9404 30.8009C79.4402 30.8779 79.0046 30.9153 78.633 30.9153C77.5171 30.9153 76.9331 30.3693 76.8817 29.2758C76.8653 28.9259 76.9115 28.5209 77.0212 28.0617L78.8105 18.6466H70.5068L69.8433 21.9927H74.1101L73.06 27.5698C72.8638 28.532 72.7835 29.3735 72.8176 30.0952C72.8823 31.4736 73.3039 32.5395 74.0839 33.2939C74.8631 34.0484 76.0293 34.4258 77.5837 34.4258C78.1958 34.4258 78.8555 34.3708 79.5616 34.2617C79.9972 34.1941 81.2334 33.8263 82.3037 33.4826C83.2027 34.1514 84.3804 34.4915 85.8475 34.4915C87.3348 34.4915 88.628 34.1904 89.7271 33.5887C90.8253 32.9878 91.7293 32.195 92.4374 31.2108C93.1462 30.2266 93.657 29.1116 93.9706 27.8646C94.2838 26.6178 94.4103 25.3502 94.3492 24.0592C94.2592 22.1353 93.7041 20.6859 92.6844 19.7123Z" fill="#2C2C2C"/>
<path d="M105.711 28.1273C105.641 28.4989 105.588 28.8929 105.553 29.3077C105.518 29.7237 105.496 30.0951 105.491 30.4235C105.075 30.905 104.553 31.3205 103.925 31.6701C103.295 32.0199 102.564 32.1947 101.734 32.1947C101.187 32.1947 100.728 32.1021 100.359 31.9159C99.9886 31.7307 99.6923 31.4846 99.4706 31.178C99.2479 30.872 99.0829 30.5052 98.9751 30.0793C98.8681 29.6526 98.8025 29.1877 98.7794 28.6849C98.7303 27.657 98.8587 26.6674 99.1644 25.7161C99.4694 24.7649 99.9273 23.9226 100.538 23.1901C101.15 22.457 101.898 21.8726 102.786 21.4343C103.673 20.9976 104.676 20.7785 105.792 20.7785C105.966 20.7785 106.213 20.795 106.533 20.8276C106.851 20.8606 107.066 20.8991 107.177 20.9427L105.711 28.1273ZM108.047 31.0463C108.026 30.5874 108.043 30.1554 108.101 29.7508C108.158 29.3462 108.23 28.9147 108.319 28.4555L111.649 11.3311L108.881 11.79L107.56 18.6138C107.054 18.5482 106.549 18.5152 106.046 18.5152C104.317 18.5152 102.811 18.8158 101.527 19.4174C100.242 20.0192 99.1844 20.8063 98.3554 21.7792C97.5261 22.7528 96.9222 23.8676 96.5439 25.1254C96.1648 26.3833 96.0071 27.6677 96.0686 28.9801C96.1444 30.5986 96.611 31.9106 97.4684 32.9161C98.3253 33.9227 99.6072 34.4257 101.314 34.4257C102.43 34.4257 103.344 34.234 104.06 33.8514C104.774 33.4694 105.342 33.0805 105.761 32.6871C105.819 32.9935 105.898 33.2776 105.998 33.5401C106.098 33.8022 106.207 34.032 106.326 34.2289L108.707 33.9004C108.505 33.3544 108.351 32.8565 108.242 32.408C108.133 31.9598 108.068 31.506 108.047 31.0463Z" fill="#2C2C2C"/>
<path d="M114.135 24.0593C114.466 23.4255 114.882 22.8624 115.384 22.3698C115.887 21.8782 116.453 21.4841 117.085 21.1893C117.716 20.8939 118.404 20.7462 119.149 20.7462C119.629 20.7462 120.037 20.8011 120.371 20.9104C120.704 21.0203 120.967 21.1622 121.162 21.3371C121.356 21.5119 121.496 21.6975 121.583 21.8946C121.668 22.0915 121.715 22.277 121.723 22.4519C121.757 23.1737 121.589 23.77 121.217 24.24C120.845 24.711 120.298 25.0766 119.578 25.3391C118.857 25.6019 117.974 25.7825 116.928 25.8802C115.883 25.9786 114.704 26.0392 113.392 26.0608C113.556 25.3614 113.804 24.6945 114.135 24.0593ZM117.172 27.9306C118.535 27.8215 119.765 27.5757 120.863 27.1927C121.961 26.8101 122.842 26.2363 123.507 25.4705C124.171 24.7054 124.47 23.6333 124.405 22.2557C124.381 21.7524 124.266 21.2714 124.058 20.8118C123.851 20.3528 123.542 19.9539 123.133 19.6142C122.722 19.2758 122.206 19.0024 121.584 18.7948C120.961 18.587 120.223 18.4829 119.37 18.4829C117.926 18.4829 116.643 18.7612 115.52 19.3194C114.398 19.877 113.453 20.6205 112.687 21.5497C111.922 22.4797 111.355 23.5677 110.986 24.8145C110.619 26.0608 110.467 27.373 110.532 28.7507C110.567 29.4945 110.726 30.2111 111.011 30.8998C111.294 31.5883 111.712 32.1951 112.261 32.7204C112.811 33.245 113.487 33.6661 114.29 33.9832C115.092 34.3001 116.03 34.4591 117.102 34.4591C118.59 34.4591 119.799 34.333 120.728 34.0814C121.656 33.8303 122.324 33.5946 122.729 33.3764L122.392 31.0797C122.265 31.1675 122.04 31.2717 121.717 31.3915C121.395 31.5122 121.022 31.6213 120.6 31.7199C120.178 31.8181 119.723 31.9054 119.234 31.9818C118.745 32.0591 118.271 32.0969 117.812 32.0969C116.411 32.0969 115.27 31.7856 114.387 31.1616C113.504 30.5386 113.096 29.5381 113.162 28.1604C114.474 28.1168 115.81 28.0407 117.172 27.9306Z" fill="#2C2C2C"/>
<path d="M135.63 27.1266C135.346 28.0778 134.909 28.9144 134.32 29.6361C133.73 30.3576 133.003 30.9321 132.136 31.3583C131.27 31.785 130.279 31.9978 129.163 31.9978C128.944 31.9978 128.675 31.9816 128.356 31.9494C128.037 31.9157 127.779 31.8778 127.58 31.8342L129.67 21.1397C129.95 21.0741 130.341 20.9978 130.84 20.9099C131.339 20.8229 131.83 20.7787 132.311 20.7787C133.011 20.7787 133.596 20.8721 134.064 21.0576C134.532 21.2438 134.905 21.4953 135.182 21.812C135.46 22.1298 135.657 22.4902 135.775 22.8949C135.893 23.2995 135.961 23.7204 135.982 24.1574C136.03 25.186 135.913 26.1753 135.63 27.1266ZM138.229 21.6973C137.98 21.0411 137.62 20.4781 137.148 20.0078C136.678 19.5375 136.086 19.1664 135.373 18.8923C134.66 18.6195 133.833 18.4824 132.893 18.4824C132.476 18.4824 132.023 18.5047 131.534 18.548C131.042 18.5923 130.548 18.6524 130.049 18.7287C129.549 18.805 129.056 18.9087 128.57 19.04C128.083 19.1712 127.647 19.3141 127.261 19.4667L123.41 39.4776H126.101L127.1 34.1961C127.299 34.2398 127.58 34.2888 127.943 34.3438C128.307 34.3981 128.599 34.426 128.818 34.426C130.59 34.426 132.113 34.1246 133.387 33.5237C134.66 32.9222 135.701 32.1292 136.508 31.145C137.315 30.1607 137.89 29.0349 138.236 27.7663C138.582 26.4987 138.722 25.186 138.658 23.8296C138.622 23.0639 138.479 22.3531 138.229 21.6973Z" fill="#2C2C2C"/>
<path d="M151.123 26.7988C150.916 27.75 150.589 28.6087 150.144 29.3738C149.699 30.1396 149.138 30.7682 148.461 31.2603C147.784 31.7525 147.007 31.9983 146.132 31.9983C145.081 31.9983 144.325 31.7253 143.862 31.1782C143.398 30.632 143.143 29.8662 143.097 28.8819C143.055 27.9857 143.137 27.0611 143.344 26.1098C143.551 25.1585 143.877 24.2945 144.322 23.5182C144.767 22.7425 145.328 22.108 146.005 21.6154C146.681 21.1237 147.458 20.8774 148.333 20.8774C149.384 20.8774 150.14 21.1564 150.605 21.7139C151.068 22.2715 151.323 23.0421 151.37 24.0264C151.412 24.9236 151.33 25.8475 151.123 26.7988ZM154.083 23.7972C154.004 22.1358 153.489 20.8338 152.538 19.8932C151.585 18.9532 150.299 18.4829 148.68 18.4829C147.104 18.4829 145.775 18.822 144.691 19.4998C143.607 20.1779 142.734 21.0416 142.072 22.0915C141.411 23.1407 140.95 24.2892 140.692 25.5362C140.433 26.7823 140.33 27.975 140.384 29.1117C140.462 30.774 140.977 32.0751 141.93 33.015C142.882 33.9561 144.168 34.4264 145.787 34.4264C147.362 34.4264 148.692 34.0865 149.776 33.4092C150.86 32.7314 151.733 31.8676 152.395 30.8177C153.057 29.768 153.517 28.6194 153.775 27.3731C154.034 26.1263 154.136 24.9343 154.083 23.7972Z" fill="#2C2C2C"/>
<path d="M162.437 18.4829C160.359 18.4829 158.771 18.9206 157.674 19.7949C156.578 20.6699 156.064 21.8403 156.133 23.3049C156.159 23.8738 156.281 24.3607 156.497 24.7653C156.712 25.1699 156.986 25.5146 157.317 25.798C157.647 26.0828 158.026 26.335 158.452 26.5531C158.878 26.7716 159.314 26.9907 159.763 27.2091C160.702 27.6465 161.437 28.0407 161.968 28.3902C162.499 28.74 162.779 29.221 162.807 29.8336C162.828 30.271 162.73 30.6428 162.515 30.9483C162.3 31.2552 162.01 31.4957 161.646 31.6705C161.282 31.846 160.867 31.9711 160.4 32.0474C159.933 32.1245 159.46 32.1624 158.978 32.1624C157.972 32.1624 157.09 32.0203 156.332 31.7362C155.575 31.4523 155.015 31.1895 154.654 30.9483L153.679 33.245C154.106 33.4857 154.78 33.7483 155.702 34.0324C156.623 34.3165 157.708 34.4591 158.955 34.4591C159.94 34.4591 160.837 34.3548 161.648 34.1471C162.458 33.9396 163.151 33.6334 163.722 33.2288C164.294 32.8242 164.73 32.3102 165.028 31.687C165.327 31.0637 165.457 30.3364 165.418 29.5051C165.391 28.9369 165.28 28.4445 165.086 28.0293C164.89 27.614 164.628 27.2477 164.296 26.9299C163.963 26.6137 163.573 26.335 163.124 26.0935C162.675 25.853 162.194 25.6344 161.682 25.4375C160.856 25.0879 160.166 24.7323 159.612 24.3713C159.059 24.0108 158.771 23.5673 158.746 23.0421C158.726 22.6054 158.807 22.245 158.991 21.9602C159.174 21.6761 159.426 21.4463 159.746 21.2714C160.066 21.0966 160.437 20.9708 160.861 20.8939C161.284 20.8176 161.713 20.7792 162.152 20.7792C162.983 20.7792 163.736 20.8667 164.413 21.0416C165.088 21.2171 165.594 21.4026 165.932 21.5992L166.841 19.3029C166.46 19.1061 165.888 18.9206 165.125 18.745C164.362 18.5705 163.466 18.4829 162.437 18.4829Z" fill="#2C2C2C"/>
<path d="M182.368 27.6348L183.605 21.1069H189.48L189.899 18.843H184.056L184.983 14.1196L182.182 14.5786L181.365 18.843H178.115L177.696 21.1069H180.914L179.665 27.3728C179.56 27.9197 179.48 28.4557 179.429 28.9803C179.377 29.5049 179.363 30.0082 179.385 30.4891C179.392 30.628 179.406 30.7568 179.42 30.8869C178.322 31.2389 176.727 31.7488 176.492 31.7851C176.145 31.8402 175.785 31.8673 175.413 31.8673C174.516 31.8673 173.899 31.6654 173.563 31.26C173.226 30.8559 173.044 30.3471 173.015 29.7347C172.997 29.3628 173.018 28.9803 173.076 28.5861C173.134 28.1931 173.208 27.7774 173.296 27.34L174.899 18.843H167.809L167.391 21.1069H171.789L170.594 27.1102C170.509 27.6135 170.438 28.1059 170.384 28.5861C170.33 29.068 170.314 29.5379 170.336 29.9975C170.364 30.5876 170.46 31.1342 170.627 31.6375C170.792 32.1405 171.054 32.5781 171.41 32.9493C171.767 33.3219 172.23 33.6166 172.798 33.8351C173.366 34.054 174.055 34.1633 174.865 34.1633C175.608 34.1633 176.181 34.1248 176.582 34.0484C176.832 34.0009 178.808 33.4962 180.302 33.1107C180.46 33.2916 180.634 33.4525 180.828 33.5888C181.246 33.8843 181.726 34.0976 182.269 34.2288C182.811 34.3604 183.399 34.4261 184.034 34.4261C184.8 34.4261 185.524 34.3488 186.206 34.1963C186.888 34.0433 187.541 33.8571 188.166 33.638L188.122 31.309C187.562 31.5282 186.964 31.709 186.326 31.8501C185.687 31.9926 185.028 32.0634 184.35 32.0634C183.649 32.0634 183.101 31.9272 182.706 31.654C182.31 31.3805 182.093 30.8288 182.054 29.9975C182.036 29.6254 182.062 29.2431 182.131 28.8489C182.2 28.4557 182.279 28.0508 182.368 27.6348Z" fill="#2C2C2C"/>
<path fill-rule="evenodd" clip-rule="evenodd" d="M170.897 16.6105C170.063 14.1853 172.601 10.5868 178.645 10.248C178.762 14.142 176.128 17.5835 170.897 16.6105Z" fill="#A49C52"/>
</g>
<defs>
<clipPath id="clip0_40_125">
<rect width="190" height="48" fill="white"/>
</clipPath>
</defs>
</svg>
