<svg width="190" height="48" viewBox="0 0 190 48" fill="none" xmlns="http://www.w3.org/2000/svg"><g clip-path="url(#a)"><path d="M23.634 1.99c-5.168 0-10.19 1.876-14.138 5.283A21.984 21.984 0 0 0 2.12 20.732C.363 32.705 8.597 43.886 20.476 45.658c1.065.158 2.146.239 3.214.239 5.168 0 10.189-1.876 14.138-5.283a21.985 21.985 0 0 0 7.376-13.459c.851-5.8-.59-11.587-4.057-16.295-3.466-4.708-8.545-7.773-14.3-8.63a21.875 21.875 0 0 0-3.213-.24Zm.056 45.8a23.75 23.75 0 0 1-3.489-.261C7.3 45.605-1.645 33.46.263 20.455a23.882 23.882 0 0 1 8.012-14.62c4.289-3.7 9.743-5.737 15.359-5.737 1.159 0 2.333.087 3.489.26 6.25.932 11.766 4.26 15.532 9.374 3.765 5.114 5.33 11.4 4.406 17.7a23.879 23.879 0 0 1-8.013 14.62c-4.288 3.7-9.743 5.737-15.358 5.737Z" fill="#A49C52"/><path d="M19.137 42.384c.908.12 1.824.181 2.726.181 9.235 0 17.063-6.306 19.037-15.337 1.214-5.558.095-11.507-2.994-15.915-2.424-3.457-5.807-5.617-9.526-6.084a21.093 21.093 0 0 0-2.61-.164c-9.324 0-17.38 6.439-19.154 15.31-1.85 9.242 3.648 18.894 12.52 22.009Zm2.726 1.758a22.5 22.5 0 0 1-3.013-.206l-.149-.036c-4.606-1.594-8.549-4.867-11.102-9.214-2.618-4.455-3.511-9.648-2.516-14.623 1.921-9.604 10.62-16.575 20.686-16.575.929 0 1.873.06 2.804.176 4.16.522 7.93 2.916 10.61 6.74 3.34 4.763 4.552 11.18 3.244 17.164-2.133 9.759-10.589 16.574-20.564 16.574Z" fill="#A49C52"/><path d="M17.82 39.11c.74.083 1.481.124 2.208.124 7.726 0 14.231-4.682 16.572-11.928 1.728-5.349 1.135-11.427-1.51-15.485-1.39-2.134-3.231-3.409-5.181-3.593a20.957 20.957 0 0 0-1.951-.092c-8.037 0-14.809 4.776-16.85 11.884-2.207 7.688 1.91 15.249 6.711 19.09Zm2.208 1.386c-.833 0-1.684-.052-2.53-.154l-.173-.021-.137-.107C11.832 36.02 7.504 28.04 9.907 19.669c2.197-7.653 9.451-12.794 18.05-12.794.683 0 1.38.033 2.068.098 2.337.22 4.506 1.696 6.11 4.155 2.847 4.366 3.496 10.87 1.655 16.569-2.512 7.775-9.484 12.799-17.762 12.799Z" fill="#A49C52"/><path fill-rule="evenodd" clip-rule="evenodd" d="M34.089 12.866c-.66-1.436-1.53-2.325-2.519-2.572a13.822 13.822 0 0 0-3.34-.419c-6.366 0-11.363 4.72-13.49 9.397-1.204 2.645-1.588 5.67-1.15 9.136.028.223.163.227.205.007a15.82 15.82 0 0 1 .572-2.134c-.071-2.457.333-4.654 1.225-6.615 2.003-4.402 6.688-8.845 12.638-8.845 1.026 0 2.074.132 3.115.392.692.172 1.364.9 1.892 2.05 1.91 4.16.977 10.258-.931 14.132-2.625 5.328-7.903 8.509-14.118 8.509a19.78 19.78 0 0 1-1.667-.072 42.554 42.554 0 0 1-.81-2.32c-.707-3.372 1.716-7.527 5.31-10.913 3.598-3.39 9.228-6.11 9.502-5.952.273.158-5.553 2.68-9.775 7.484-2.821 3.209-4.138 6.819-3.53 9.352 2.585-.184 6.75-1.146 10.177-5.051 5.221-5.95 5.474-14.504 5.474-14.504s-7.697.145-13.01 5.32c-3.63 3.536-5.883 9.628-5.097 14.37.286.918.613 1.86.99 2.831l.105.27.286.028c.688.068 1.375.103 2.045.103 6.58 0 12.171-3.378 14.958-9.034 2.777-5.636 2.435-11.7.943-14.95Z" fill="#A49C52"/><path d="M65.774 27.094a5.969 5.969 0 0 1-.874 2.001 4.66 4.66 0 0 1-1.493 1.394c-.596.35-1.3.526-2.109.526a9.263 9.263 0 0 1-1.516-.132l1.673-8.398c.294-.24.663-.427 1.106-.558a4.229 4.229 0 0 1 1.189-.197c.634 0 1.153.214 1.556.64.403.427.631 1.209.685 2.346a8.382 8.382 0 0 1-.217 2.378Zm2.726-7.283c-.888-.973-2.054-1.46-3.498-1.46a5.93 5.93 0 0 0-1.484.197 6.402 6.402 0 0 0-1.435.558l1.504-7.808-4.169.69-4.173 21.519c.846.307 1.798.547 2.857.722a17.9 17.9 0 0 0 2.9.263c1.4 0 2.669-.246 3.806-.739a8.157 8.157 0 0 0 2.889-2.066c.79-.886 1.385-1.952 1.786-3.2.4-1.245.566-2.612.497-4.1-.098-2.077-.592-3.602-1.48-4.576Zm6.635-3.592c.444.372 1.016.558 1.717.558.328 0 .653-.07.975-.214a2.97 2.97 0 0 0 .858-.573c.251-.241.452-.537.6-.886a2.54 2.54 0 0 0 .193-1.116c-.04-.83-.303-1.432-.79-1.804a2.704 2.704 0 0 0-1.685-.557c-.35 0-.686.07-1.007.212a2.758 2.758 0 0 0-.843.575c-.24.24-.429.54-.565.902a2.88 2.88 0 0 0-.175 1.164c.037.788.278 1.368.722 1.739Zm15.037 10.776a6.99 6.99 0 0 1-.73 1.92 5.12 5.12 0 0 1-1.228 1.476c-.484.394-1.055.59-1.711.59-.898 0-1.508-.295-1.83-.886-.324-.59-.51-1.399-.558-2.427a7.355 7.355 0 0 1 .187-1.951c.153-.69.391-1.33.714-1.92a4.771 4.771 0 0 1 1.227-1.476 2.649 2.649 0 0 1 1.695-.591c.92 0 1.54.296 1.864.886.323.59.509 1.4.557 2.428a7.368 7.368 0 0 1-.187 1.951Zm2.512-7.283c-1.02-.973-2.328-1.46-3.924-1.46-1.489 0-2.787.302-3.897.903a8.165 8.165 0 0 0-2.743 2.378 10.03 10.03 0 0 0-1.583 3.346 12.425 12.425 0 0 0-.41 3.839 8.2 8.2 0 0 0 .326 1.981 8.726 8.726 0 0 1-1.82.216c-1.116 0-1.7-.546-1.751-1.64a4.41 4.41 0 0 1 .14-1.213l1.788-9.415h-8.303l-.664 3.346h4.267l-1.05 5.577c-.196.962-.276 1.803-.242 2.525.064 1.379.486 2.444 1.266 3.199.78.754 1.945 1.132 3.5 1.132.612 0 1.272-.055 1.978-.164.435-.068 1.671-.436 2.742-.78.899.67 2.076 1.01 3.543 1.01 1.488 0 2.781-.302 3.88-.903a8.047 8.047 0 0 0 2.71-2.378 9.72 9.72 0 0 0 1.534-3.346c.313-1.247.44-2.515.378-3.806-.09-1.924-.645-3.373-1.665-4.347Zm13.027 8.415c-.07.372-.123.766-.158 1.18a16.58 16.58 0 0 0-.062 1.117 5.716 5.716 0 0 1-1.566 1.246c-.63.35-1.361.525-2.191.525-.547 0-1.006-.093-1.375-.28a2.394 2.394 0 0 1-.888-.737 3.168 3.168 0 0 1-.496-1.099 7.065 7.065 0 0 1-.196-1.394 8.326 8.326 0 0 1 .385-2.969 7.456 7.456 0 0 1 1.374-2.526 6.818 6.818 0 0 1 2.248-1.756c.887-.436 1.89-.655 3.006-.655.174 0 .421.016.741.049.318.033.533.071.644.115l-1.466 7.184Zm2.336 2.92a6.911 6.911 0 0 1 .054-1.296c.057-.405.129-.836.218-1.296l3.33-17.124-2.768.459-1.321 6.824a11.769 11.769 0 0 0-1.514-.099c-1.729 0-3.235.3-4.519.902-1.285.602-2.343 1.39-3.172 2.362a9.173 9.173 0 0 0-1.811 3.346 11.41 11.41 0 0 0-.475 3.855c.075 1.619.542 2.93 1.4 3.936.856 1.007 2.138 1.51 3.845 1.51 1.116 0 2.03-.192 2.746-.575.714-.382 1.282-.77 1.701-1.164.058.306.137.59.237.853.1.262.209.492.328.689l2.381-.329a13.589 13.589 0 0 1-.465-1.492 7.124 7.124 0 0 1-.195-1.362Zm6.088-6.987a6.686 6.686 0 0 1 1.249-1.69 6.119 6.119 0 0 1 1.701-1.18 4.807 4.807 0 0 1 2.064-.444c.48 0 .888.055 1.222.164.333.11.596.252.791.427a1.596 1.596 0 0 1 .561 1.115c.034.722-.134 1.318-.506 1.788-.372.471-.919.837-1.639 1.1-.721.262-1.604.442-2.65.54a46.139 46.139 0 0 1-3.536.18 8.518 8.518 0 0 1 .743-2Zm3.037 3.87c1.363-.108 2.593-.354 3.691-.737 1.098-.383 1.979-.957 2.644-1.723.664-.765.963-1.837.898-3.214a3.922 3.922 0 0 0-.347-1.444 3.322 3.322 0 0 0-.925-1.198c-.411-.338-.927-.612-1.549-.82-.623-.207-1.361-.311-2.214-.311-1.444 0-2.727.278-3.85.836a8.556 8.556 0 0 0-2.833 2.23c-.765.93-1.332 2.019-1.701 3.265a11.862 11.862 0 0 0-.454 3.937 6.36 6.36 0 0 0 .479 2.149 5.274 5.274 0 0 0 1.25 1.82c.55.525 1.226.946 2.029 1.263.802.317 1.74.476 2.812.476 1.488 0 2.697-.126 3.626-.378.928-.25 1.596-.486 2.001-.705l-.337-2.296c-.127.088-.352.192-.675.312-.322.12-.695.23-1.117.328-.422.098-.877.185-1.366.262a9.102 9.102 0 0 1-1.422.115c-1.401 0-2.542-.311-3.425-.935-.883-.623-1.291-1.624-1.225-3.002a84.65 84.65 0 0 0 4.01-.23Zm18.458-.803a7.162 7.162 0 0 1-1.31 2.51 6.467 6.467 0 0 1-2.184 1.721c-.866.427-1.857.64-2.973.64a8.26 8.26 0 0 1-.807-.049 7.395 7.395 0 0 1-.776-.115l2.09-10.694c.28-.066.671-.142 1.17-.23.499-.087.99-.131 1.471-.131.7 0 1.285.093 1.753.279.468.186.841.437 1.118.754.278.318.475.678.593 1.083.118.404.186.825.207 1.262a8.884 8.884 0 0 1-.352 2.97Zm2.599-5.43a4.709 4.709 0 0 0-1.081-1.69c-.47-.47-1.062-.84-1.775-1.115-.713-.273-1.54-.41-2.48-.41-.417 0-.87.023-1.359.066a24.13 24.13 0 0 0-1.485.18 13.439 13.439 0 0 0-2.788.739l-3.851 20.01h2.691l.999-5.28c.199.043.48.092.843.147.364.054.656.082.875.082 1.772 0 3.295-.301 4.569-.902 1.273-.602 2.314-1.395 3.121-2.379a8.992 8.992 0 0 0 1.728-3.379c.346-1.267.486-2.58.422-3.936a6.852 6.852 0 0 0-.429-2.133Zm12.894 5.102a8.814 8.814 0 0 1-.979 2.575 6.061 6.061 0 0 1-1.683 1.886c-.677.492-1.454.738-2.329.738-1.051 0-1.807-.273-2.27-.82-.464-.546-.719-1.312-.765-2.296-.042-.896.04-1.82.247-2.772a9.04 9.04 0 0 1 .978-2.592 6.019 6.019 0 0 1 1.683-1.903c.676-.491 1.453-.738 2.328-.738 1.051 0 1.807.28 2.272.837.463.558.718 1.328.765 2.312a10.66 10.66 0 0 1-.247 2.773Zm2.96-3.002c-.079-1.661-.594-2.963-1.545-3.904-.953-.94-2.239-1.41-3.858-1.41-1.576 0-2.905.339-3.989 1.017a8.17 8.17 0 0 0-2.619 2.591 10.337 10.337 0 0 0-1.38 3.445c-.259 1.246-.362 2.439-.308 3.576.078 1.662.593 2.963 1.546 3.903.952.941 2.238 1.411 3.857 1.411 1.575 0 2.905-.34 3.989-1.017a8.166 8.166 0 0 0 2.619-2.591 10.326 10.326 0 0 0 1.38-3.445 14.29 14.29 0 0 0 .308-3.576Zm8.354-5.314c-2.078 0-3.666.438-4.763 1.312-1.096.875-1.61 2.045-1.541 3.51.026.569.148 1.056.364 1.46.215.405.489.75.82 1.033.33.285.709.537 1.135.755.426.219.862.438 1.311.656.939.438 1.674.832 2.205 1.181.531.35.811.831.839 1.444.021.437-.077.809-.292 1.114a2.198 2.198 0 0 1-.869.723 4.55 4.55 0 0 1-1.246.376c-.467.078-.94.115-1.422.115-1.006 0-1.888-.142-2.646-.426-.757-.284-1.317-.547-1.678-.788l-.975 2.297c.427.24 1.101.503 2.023.787.921.285 2.006.427 3.253.427.985 0 1.882-.104 2.693-.312.81-.207 1.503-.514 2.074-.918a3.95 3.95 0 0 0 1.306-1.542c.299-.623.429-1.35.39-2.182-.027-.568-.138-1.06-.332-1.476a3.682 3.682 0 0 0-.79-1.1 5.411 5.411 0 0 0-1.172-.835 12.66 12.66 0 0 0-1.442-.657c-.826-.35-1.516-.705-2.07-1.066-.553-.36-.841-.804-.866-1.329-.02-.437.061-.797.245-1.082.183-.284.435-.514.755-.689.32-.174.691-.3 1.115-.377a7.247 7.247 0 0 1 1.291-.115c.831 0 1.584.088 2.261.263.675.175 1.181.36 1.519.557l.909-2.296c-.381-.197-.953-.382-1.716-.558-.763-.175-1.659-.262-2.688-.262Zm19.931 9.152 1.237-6.528h5.875l.419-2.264h-5.843l.927-4.723-2.801.459-.817 4.264h-3.25l-.419 2.264h3.218l-1.249 6.266a17.538 17.538 0 0 0-.236 1.607 10.456 10.456 0 0 0-.044 1.51c.007.138.021.267.035.397-1.098.352-2.693.862-2.928.898a6.876 6.876 0 0 1-1.079.082c-.897 0-1.514-.202-1.85-.607-.337-.404-.519-.913-.548-1.525a5.915 5.915 0 0 1 .061-1.149c.058-.393.132-.809.22-1.246l1.603-8.497h-7.09l-.418 2.264h4.398l-1.195 6.003a27 27 0 0 0-.21 1.476 8.86 8.86 0 0 0-.048 1.412c.028.59.124 1.136.291 1.64.165.503.427.94.783 1.311.357.373.82.668 1.388.886.568.219 1.257.328 2.067.328.743 0 1.316-.038 1.717-.115.25-.047 2.226-.552 3.72-.937.158.18.332.342.526.478a4.16 4.16 0 0 0 1.441.64 7.5 7.5 0 0 0 1.765.197c.766 0 1.49-.077 2.172-.23a17.516 17.516 0 0 0 1.96-.558l-.044-2.329c-.56.22-1.158.4-1.796.541a9.054 9.054 0 0 1-1.976.213c-.701 0-1.249-.136-1.644-.409-.396-.273-.613-.825-.652-1.657a5.191 5.191 0 0 1 .077-1.148c.069-.393.148-.798.237-1.214Z" fill="#2C2C2C"/><path fill-rule="evenodd" clip-rule="evenodd" d="M170.897 16.61c-.834-2.425 1.704-6.023 7.748-6.362.117 3.894-2.517 7.336-7.748 6.362Z" fill="#A49C52"/></g><defs><clipPath id="a"><path fill="#fff" d="M0 0h190v48H0z"/></clipPath></defs></svg>